<svg xmlns="http://www.w3.org/2000/svg" xmlns:xlink="http://www.w3.org/1999/xlink" width="1000" zoomAndPan="magnify" viewBox="0 0 750 299.999988" height="400" preserveAspectRatio="xMidYMid meet" version="1.0"><defs><g/><clipPath id="id1"><path d="M 21.738281 32.582031 L 154.488281 32.582031 L 154.488281 178.832031 L 21.738281 178.832031 Z M 21.738281 32.582031 " clip-rule="nonzero"/></clipPath><clipPath id="id2"><path d="M 594.671875 32.582031 L 727.257812 32.582031 L 727.257812 178.832031 L 594.671875 178.832031 Z M 594.671875 32.582031 " clip-rule="nonzero"/></clipPath><clipPath id="id3"><path d="M 290 153 L 361 153 L 361 267 L 290 267 Z M 290 153 " clip-rule="nonzero"/></clipPath><clipPath id="id4"><path d="M 272.945312 86.714844 L 404.890625 72.121094 L 424.84375 252.523438 L 292.898438 267.117188 Z M 272.945312 86.714844 " clip-rule="nonzero"/></clipPath><clipPath id="id5"><path d="M 272.945312 86.714844 L 404.890625 72.121094 L 424.84375 252.523438 L 292.898438 267.117188 Z M 272.945312 86.714844 " clip-rule="nonzero"/></clipPath><clipPath id="id6"><path d="M 360 89 L 367 89 L 367 96 L 360 96 Z M 360 89 " clip-rule="nonzero"/></clipPath><clipPath id="id7"><path d="M 272.945312 86.714844 L 404.890625 72.121094 L 424.84375 252.523438 L 292.898438 267.117188 Z M 272.945312 86.714844 " clip-rule="nonzero"/></clipPath><clipPath id="id8"><path d="M 272.945312 86.714844 L 404.890625 72.121094 L 424.84375 252.523438 L 292.898438 267.117188 Z M 272.945312 86.714844 " clip-rule="nonzero"/></clipPath><clipPath id="id9"><path d="M 335 92 L 357 92 L 357 144 L 335 144 Z M 335 92 " clip-rule="nonzero"/></clipPath><clipPath id="id10"><path d="M 272.945312 86.714844 L 404.890625 72.121094 L 424.84375 252.523438 L 292.898438 267.117188 Z M 272.945312 86.714844 " clip-rule="nonzero"/></clipPath><clipPath id="id11"><path d="M 272.945312 86.714844 L 404.890625 72.121094 L 424.84375 252.523438 L 292.898438 267.117188 Z M 272.945312 86.714844 " clip-rule="nonzero"/></clipPath><clipPath id="id12"><path d="M 297 72 L 425 72 L 425 193 L 297 193 Z M 297 72 " clip-rule="nonzero"/></clipPath><clipPath id="id13"><path d="M 272.945312 86.714844 L 404.890625 72.121094 L 424.84375 252.523438 L 292.898438 267.117188 Z M 272.945312 86.714844 " clip-rule="nonzero"/></clipPath><clipPath id="id14"><path d="M 272.945312 86.714844 L 404.890625 72.121094 L 424.84375 252.523438 L 292.898438 267.117188 Z M 272.945312 86.714844 " clip-rule="nonzero"/></clipPath><clipPath id="id15"><path d="M 322.761719 76.207031 L 412.761719 76.207031 L 412.761719 166.207031 L 322.761719 166.207031 Z M 322.761719 76.207031 " clip-rule="nonzero"/></clipPath><clipPath id="id16"><path d="M 324.265625 77.972656 L 411.265625 77.972656 L 411.265625 164.972656 L 324.265625 164.972656 Z M 324.265625 77.972656 " clip-rule="nonzero"/></clipPath><clipPath id="id17"><path d="M 369 133 L 377 133 L 377 139.855469 L 369 139.855469 Z M 369 133 " clip-rule="nonzero"/></clipPath><clipPath id="id18"><path d="M 379 103.105469 L 387 103.105469 L 387 111 L 379 111 Z M 379 103.105469 " clip-rule="nonzero"/></clipPath><clipPath id="id19"><path d="M 358 103.105469 L 364 103.105469 L 364 109 L 358 109 Z M 358 103.105469 " clip-rule="nonzero"/></clipPath><clipPath id="id20"><path d="M 350.175781 127 L 356 127 L 356 133 L 350.175781 133 Z M 350.175781 127 " clip-rule="nonzero"/></clipPath><clipPath id="id21"><path d="M 382 127 L 387.675781 127 L 387.675781 133 L 382 133 Z M 382 127 " clip-rule="nonzero"/></clipPath></defs><g fill="#396ab3" fill-opacity="1"><g transform="translate(151.596015, 162.097218)"><g><path d="M 9.03125 0 L 9.03125 -83.328125 L 63.15625 -83.328125 L 63.15625 -68.34375 L 26.015625 -68.34375 L 26.015625 -50.578125 L 57.328125 -50.578125 L 57.328125 -35.53125 L 26.015625 -35.53125 L 26.015625 -15.53125 L 63.15625 -15.53125 L 63.15625 0 Z M 9.03125 0 "/></g></g></g><g fill="#f25c5c" fill-opacity="1"><g transform="translate(232.370446, 162.097218)"><g><path d="M 72.859375 -24.140625 C 72.859375 -15.796875 69.988281 -9.6875 64.25 -5.8125 C 58.507812 -1.9375 50.539062 0 40.34375 0 L 9.03125 0 L 9.03125 -83.328125 L 38.46875 -83.328125 C 49.144531 -83.328125 56.789062 -81.769531 61.40625 -78.65625 C 66.03125 -75.550781 68.34375 -70.628906 68.34375 -63.890625 C 68.34375 -58.703125 67.085938 -54.503906 64.578125 -51.296875 C 62.066406 -48.085938 58.144531 -45.941406 52.8125 -44.859375 C 59.789062 -43.890625 64.875 -41.679688 68.0625 -38.234375 C 71.257812 -34.785156 72.859375 -30.085938 72.859375 -24.140625 Z M 51.171875 -60.15625 C 51.171875 -63.320312 50.003906 -65.515625 47.671875 -66.734375 C 45.347656 -67.960938 41.738281 -68.578125 36.84375 -68.578125 L 26.015625 -68.578125 L 26.015625 -50.703125 L 36.375 -50.703125 C 41.382812 -50.703125 45.101562 -51.398438 47.53125 -52.796875 C 49.957031 -54.203125 51.171875 -56.65625 51.171875 -60.15625 Z M 55.515625 -25.65625 C 55.515625 -29.382812 54.25 -32.019531 51.71875 -33.5625 C 49.1875 -35.113281 44.453125 -35.890625 37.515625 -35.890625 L 26.015625 -35.890625 L 26.015625 -15.046875 L 34.625 -15.046875 C 41.25 -15.046875 45.8125 -15.367188 48.3125 -16.015625 C 50.820312 -16.660156 52.648438 -17.742188 53.796875 -19.265625 C 54.941406 -20.796875 55.515625 -22.925781 55.515625 -25.65625 Z M 55.515625 -25.65625 "/></g></g></g><g fill="#f25c5c" fill-opacity="1"><g transform="translate(423.260843, 162.097218)"><g><path d="M 76.828125 -13.78125 C 73.253906 -8.445312 68.867188 -4.523438 63.671875 -2.015625 C 58.472656 0.492188 52.082031 1.75 44.5 1.75 C 18.6875 1.75 5.78125 -12.722656 5.78125 -41.671875 C 5.78125 -56.484375 9.050781 -67.421875 15.59375 -74.484375 C 22.132812 -81.546875 31.566406 -85.078125 43.890625 -85.078125 C 52.035156 -85.078125 58.675781 -83.703125 63.8125 -80.953125 C 68.957031 -78.203125 72.875 -74.597656 75.5625 -70.140625 L 62.375 -59.90625 C 60.445312 -62.800781 58.679688 -64.890625 57.078125 -66.171875 C 55.472656 -67.453125 53.644531 -68.414062 51.59375 -69.0625 C 49.550781 -69.707031 47.101562 -70.03125 44.25 -70.03125 C 37.425781 -70.03125 32.226562 -67.847656 28.65625 -63.484375 C 25.082031 -59.128906 23.296875 -51.859375 23.296875 -41.671875 C 23.296875 -32.148438 24.972656 -25.039062 28.328125 -20.34375 C 31.679688 -15.65625 37.03125 -13.3125 44.375 -13.3125 C 49.3125 -13.3125 53.15625 -14.253906 55.90625 -16.140625 C 58.65625 -18.023438 61.15625 -20.53125 63.40625 -23.65625 Z M 76.828125 -13.78125 "/></g></g></g><g fill="#396ab3" fill-opacity="1"><g transform="translate(515.109102, 162.097218)"><g><path d="M 1.625 0 L 29.203125 -83.328125 L 51.296875 -83.328125 L 78.9375 0 L 61.53125 0 L 56 -16.921875 L 23.90625 -16.921875 L 18.484375 0 Z M 28.71875 -31.796875 L 51.171875 -31.796875 L 39.984375 -66.234375 Z M 28.71875 -31.796875 "/></g></g></g><g clip-path="url(#id1)"><path fill="#396ab3" d="M 104.929688 178.234375 C 104.160156 177.8125 103.460938 177.042969 102.933594 175.992188 C 102.128906 174.34375 102.375 175.570312 88.296875 96.238281 C 84.898438 77.121094 81.992188 60.917969 81.785156 60.183594 C 80.976562 57.203125 80.804688 57.9375 76.566406 82.03125 C 74.675781 92.941406 72.785156 103.496094 72.398438 105.53125 C 72.011719 107.566406 71.417969 110.757812 71.136719 112.6875 C 70.824219 114.578125 70.261719 116.789062 69.878906 117.527344 C 68.757812 119.699219 66.515625 121.910156 64.34375 122.960938 L 62.382812 123.945312 L 42.214844 124.050781 L 22.042969 124.152344 L 21.832031 122.191406 C 21.730469 121.136719 21.730469 119.417969 21.832031 118.367188 C 22.007812 116.824219 22.183594 116.4375 22.777344 116.261719 C 23.164062 116.15625 31.777344 116.050781 41.898438 116.050781 C 61.613281 116.050781 61.613281 116.050781 62.453125 114.265625 C 62.699219 113.773438 65.253906 99.953125 68.160156 83.574219 C 76.460938 36.789062 76.425781 36.964844 77.265625 35.210938 C 78.175781 33.351562 79.402344 32.582031 81.503906 32.582031 C 82.660156 32.582031 83.148438 32.792969 84.09375 33.738281 C 84.726562 34.371094 85.425781 35.527344 85.636719 36.265625 C 86.089844 37.949219 89.664062 57.796875 98.976562 110.441406 C 102.863281 132.324219 106.085938 150.527344 106.191406 150.878906 C 106.402344 151.582031 107.3125 151.6875 107.554688 151.054688 C 107.660156 150.808594 110.253906 136.394531 113.335938 119.035156 C 120.09375 80.664062 119.882812 81.859375 120.6875 80.246094 C 122.019531 77.683594 124.328125 76.808594 126.605469 77.964844 C 128.777344 79.121094 129.230469 80.558594 131.929688 96.0625 C 134.835938 112.789062 134.976562 113.632812 135.570312 114.542969 C 136.269531 115.597656 136.515625 115.5625 137.214844 114.371094 C 140.402344 109.003906 148.140625 108.160156 152.167969 112.722656 C 153.882812 114.683594 154.410156 116.226562 154.410156 119.035156 C 154.410156 121.839844 153.882812 123.382812 152.203125 125.3125 C 150.3125 127.449219 148.632812 128.152344 145.375 128.152344 C 142.222656 128.152344 140.507812 127.449219 138.476562 125.417969 C 137.707031 124.644531 136.726562 124.085938 135.570312 123.804688 C 132.171875 122.960938 129.335938 120.648438 128.007812 117.632812 C 127.65625 116.859375 126.957031 113.984375 126.464844 111.316406 C 125.308594 104.933594 124.925781 103.601562 124.503906 104.023438 C 124.085938 104.445312 123.453125 107.8125 117.675781 140.425781 C 111.933594 172.972656 111.722656 174.0625 110.953125 175.78125 C 109.796875 178.410156 107.277344 179.425781 104.929688 178.234375 Z M 104.929688 178.234375 " fill-opacity="1" fill-rule="nonzero"/></g><g clip-path="url(#id2)"><path fill="#396ab3" d="M 644.230469 178.234375 C 645 177.8125 645.699219 177.042969 646.226562 175.992188 C 647.03125 174.34375 646.785156 175.570312 660.863281 96.238281 C 664.261719 77.121094 667.167969 60.917969 667.375 60.183594 C 668.183594 57.203125 668.355469 57.9375 672.59375 82.03125 C 674.484375 92.941406 676.375 103.496094 676.761719 105.53125 C 677.144531 107.566406 677.742188 110.757812 678.023438 112.6875 C 678.335938 114.578125 678.898438 116.789062 679.28125 117.527344 C 680.402344 119.699219 682.644531 121.910156 684.816406 122.960938 L 686.777344 123.945312 L 706.945312 124.050781 L 727.117188 124.152344 L 727.328125 122.191406 C 727.429688 121.136719 727.429688 119.417969 727.328125 118.367188 C 727.152344 116.824219 726.976562 116.4375 726.382812 116.261719 C 725.996094 116.15625 717.382812 116.050781 707.261719 116.050781 C 687.546875 116.050781 687.546875 116.050781 686.707031 114.265625 C 686.460938 113.773438 683.90625 99.953125 681 83.574219 C 672.699219 36.789062 672.734375 36.964844 671.894531 35.210938 C 670.984375 33.351562 669.757812 32.582031 667.65625 32.582031 C 666.5 32.582031 666.011719 32.792969 665.066406 33.738281 C 664.433594 34.371094 663.734375 35.527344 663.523438 36.265625 C 663.070312 37.949219 659.496094 57.796875 650.183594 110.441406 C 646.296875 132.324219 643.074219 150.527344 642.96875 150.878906 C 642.757812 151.582031 641.847656 151.6875 641.605469 151.054688 C 641.5 150.808594 638.90625 136.394531 635.824219 119.035156 C 629.066406 80.664062 629.277344 81.859375 628.472656 80.246094 C 627.140625 77.683594 624.832031 76.808594 622.554688 77.964844 C 620.382812 79.121094 619.929688 80.558594 617.230469 96.0625 C 614.324219 112.789062 614.183594 113.632812 613.589844 114.542969 C 612.890625 115.597656 612.644531 115.5625 611.945312 114.371094 C 608.757812 109.003906 601.019531 108.160156 596.992188 112.722656 C 595.277344 114.683594 594.75 116.226562 594.75 119.035156 C 594.75 121.839844 595.277344 123.382812 596.957031 125.3125 C 598.847656 127.449219 600.527344 128.152344 603.785156 128.152344 C 606.9375 128.152344 608.652344 127.449219 610.683594 125.417969 C 611.453125 124.644531 612.433594 124.085938 613.589844 123.804688 C 616.988281 122.960938 619.824219 120.648438 621.152344 117.632812 C 621.503906 116.859375 622.203125 113.984375 622.695312 111.316406 C 623.851562 104.933594 624.234375 103.601562 624.65625 104.023438 C 625.074219 104.445312 625.707031 107.8125 631.484375 140.425781 C 637.226562 172.972656 637.4375 174.0625 638.207031 175.78125 C 639.363281 178.410156 641.882812 179.425781 644.230469 178.234375 Z M 644.230469 178.234375 " fill-opacity="1" fill-rule="nonzero"/></g><g clip-path="url(#id3)"><g clip-path="url(#id4)"><g clip-path="url(#id5)"><path fill="#f25c5c" d="M 356.84375 167.640625 C 356.878906 167.59375 356.914062 167.546875 356.949219 167.460938 C 359.167969 163.328125 357.753906 157.71875 353.804688 154.9375 C 349.863281 152.195312 344.84375 153.296875 342.628906 157.46875 C 342.59375 157.515625 342.558594 157.601562 342.523438 157.648438 C 342.523438 157.648438 342.414062 157.785156 342.316406 158.046875 C 339.324219 155.953125 337.695312 154.835938 337.375 154.582031 C 335.515625 153.28125 333.332031 152.8125 331.246094 153.253906 C 330.46875 153.378906 324.210938 154.65625 323.433594 154.828125 C 321.671875 155.148438 320.304688 156.386719 319.582031 158.179688 C 318.574219 160.796875 319.4375 164.046875 321.648438 165.890625 C 321.785156 166 321.921875 166.109375 322.101562 166.214844 C 322.328125 166.359375 322.597656 166.539062 322.90625 166.671875 C 323.65625 167.046875 329.757812 170.007812 330.507812 170.382812 C 332.269531 171.191406 334.128906 171.363281 335.875 170.878906 C 334.972656 172.566406 328.191406 186.101562 327.332031 187.785156 C 320.375 186.507812 313.28125 189.675781 309.644531 196.511719 C 307.671875 200.199219 306.929688 204.460938 307.453125 208.832031 C 307.910156 212.585938 309.316406 216.230469 311.457031 219.296875 C 310.910156 220.402344 306.546875 228.992188 306.042969 230.09375 C 300.6875 229.304688 295.320312 231.820312 292.511719 237.0625 C 289.636719 242.4375 290.109375 249.363281 293.667969 254.695312 C 293.519531 254.878906 292.804688 256.339844 292.734375 256.472656 C 291.296875 259.347656 292.308594 263.203125 294.984375 265.082031 C 297.613281 266.921875 301.085938 266.203125 302.621094 263.441406 C 303.636719 261.660156 311.683594 247.4375 312.691406 245.613281 C 318.816406 246.898438 325.035156 244.164062 328.21875 238.171875 C 331.203125 232.617188 330.859375 225.34375 327.382812 219.625 C 329.140625 216.628906 335.117188 206.023438 335.957031 204.507812 C 344.347656 206.675781 353.027344 203.082031 357.425781 194.863281 C 361.511719 187.183594 360.824219 177.1875 355.757812 169.554688 C 355.863281 169.378906 356.742188 167.859375 356.84375 167.640625 Z M 323.09375 160.046875 C 323.316406 159.4375 323.8125 159.007812 324.390625 158.941406 C 325.167969 158.773438 331.421875 157.453125 332.199219 157.324219 C 333.34375 157.074219 334.503906 157.363281 335.5 158.046875 C 335.820312 158.304688 337.496094 159.457031 340.53125 161.585938 C 339.472656 163.710938 338.851562 164.90625 338.753906 165.167969 C 338.046875 164.828125 337.226562 164.960938 336.667969 165.566406 C 335.484375 166.992188 333.519531 167.375 331.800781 166.5625 C 331.046875 166.1875 324.949219 163.226562 324.203125 162.890625 C 324.070312 162.824219 323.929688 162.710938 323.792969 162.601562 C 323.058594 162.015625 322.769531 160.917969 323.09375 160.046875 Z M 347.503906 187.9375 C 346.464844 189.890625 344.863281 191.28125 343.0625 192.023438 C 343.40625 191.355469 345.296875 188.015625 348.648438 182.042969 C 348.535156 184.773438 348.125 186.742188 347.503906 187.9375 Z M 351.820312 168.363281 C 350.457031 170.769531 339.582031 190.027344 338.214844 192.433594 C 336.972656 192.152344 335.746094 191.660156 334.613281 190.867188 C 333.484375 190.113281 332.371094 189.484375 331.226562 188.984375 C 332.703125 186.0625 344.386719 162.789062 345.863281 159.867188 C 345.863281 159.867188 345.898438 159.824219 345.894531 159.78125 C 347.113281 157.558594 349.800781 156.925781 351.933594 158.402344 C 354.0625 159.882812 354.816406 162.933594 353.597656 165.15625 C 353.601562 165.195312 353.609375 165.238281 353.566406 165.242188 C 353.390625 165.554688 351.992188 168.007812 351.816406 168.320312 Z M 312.953125 198.820312 C 316.867188 191.492188 325.761719 189.464844 332.738281 194.335938 C 339.128906 198.808594 347.203125 196.957031 350.816406 190.285156 C 352.898438 186.421875 353.035156 181.601562 351.382812 177.269531 C 351.589844 176.871094 353.414062 173.703125 353.621094 173.304688 C 356.964844 179.328125 357.238281 186.734375 354.125 192.597656 C 349.511719 201.171875 339.066406 203.539062 330.867188 197.84375 C 325.746094 194.230469 319.132812 195.714844 316.261719 201.128906 C 315.742188 202.105469 316.089844 203.363281 317 204.015625 C 317.730469 204.5625 318.636719 204.460938 319.203125 203.898438 C 318.660156 205.042969 313.988281 214.210938 313.445312 215.359375 C 310.539062 210.246094 310.285156 203.796875 312.953125 198.820312 Z M 325.636719 200.050781 C 326.773438 200.132812 327.949219 200.546875 329.035156 201.304688 C 330.035156 202.03125 331.0625 202.625 332.125 203.136719 C 328.738281 209.195312 316.738281 230.371094 315.023438 233.402344 C 314.109375 233.460938 313.160156 233.191406 312.300781 232.617188 C 311.53125 232.078125 310.726562 231.621094 309.933594 231.25 C 311.46875 228.113281 324.054688 203.152344 325.636719 200.050781 Z M 306.71875 243.015625 C 307.445312 243.519531 308.117188 243.945312 308.867188 244.28125 C 308.199219 245.441406 305.09375 251.007812 299.386719 261.042969 C 298.261719 261.835938 297.441406 261.96875 296.8125 261.578125 C 295.949219 260.964844 295.601562 259.707031 296.078125 258.734375 C 296.902344 257.097656 303.417969 244.171875 304.199219 242.539062 C 305.011719 242.324219 305.949219 242.472656 306.71875 243.015625 Z M 295.820312 239.371094 C 298.734375 233.953125 305.300781 232.472656 310.425781 236.085938 C 314.410156 238.820312 319.429688 237.722656 321.644531 233.546875 C 322.089844 232.664062 321.835938 231.480469 321.09375 230.808594 C 321.511719 230.054688 324.800781 224.257812 325.222656 223.542969 C 326.960938 227.527344 326.894531 232.214844 324.914062 235.863281 C 321.695312 241.941406 314.351562 243.589844 308.59375 239.546875 C 305.238281 237.203125 300.996094 238.171875 299.128906 241.679688 C 298.78125 242.347656 298.828125 243.136719 299.148438 243.769531 C 298.804688 244.433594 296.03125 249.964844 295.683594 250.628906 C 293.988281 247.011719 293.980469 242.792969 295.820312 239.371094 Z M 295.820312 239.371094 " fill-opacity="1" fill-rule="nonzero"/></g></g></g><g clip-path="url(#id6)"><g clip-path="url(#id7)"><g clip-path="url(#id8)"><path fill="#f25c5c" d="M 360.546875 91.882812 C 361.382812 88.070312 367.085938 89.363281 366.253906 93.171875 C 365.421875 96.984375 359.714844 95.691406 360.546875 91.882812 Z M 360.546875 91.882812 " fill-opacity="1" fill-rule="nonzero"/></g></g></g><g clip-path="url(#id9)"><g clip-path="url(#id10)"><g clip-path="url(#id11)"><path fill="#f25c5c" d="M 348.164062 139.472656 C 350.371094 141.652344 347.144531 145.351562 344.929688 143.128906 C 337.886719 136.136719 334.5 124.808594 336.589844 114.214844 C 338.546875 103.925781 345.546875 95.753906 354.09375 92.511719 C 356.898438 91.40625 358.054688 96.546875 355.28125 97.5625 C 348.179688 100.269531 342.542969 107.164062 340.96875 115.609375 C 339.230469 124.496094 342.335938 133.636719 348.164062 139.472656 Z M 348.164062 139.472656 " fill-opacity="1" fill-rule="nonzero"/></g></g></g><g clip-path="url(#id12)"><g clip-path="url(#id13)"><g clip-path="url(#id14)"><path stroke-linecap="butt" transform="matrix(4.39818, -0.486449, 0.486137, 4.395357, 272.956224, 86.811276)" fill="none" stroke-linejoin="miter" d="M 13.190079 4.942082 C 15.998017 0.799461 21.493627 -0.242678 25.457257 2.603538 C 29.420983 5.448877 30.359693 11.122387 27.561503 15.265199 C 24.761656 19.406938 19.266733 20.458929 15.303196 17.603836 C 11.339567 14.75762 10.391108 9.083919 13.190079 4.942082 Z M 13.190079 4.942082 " stroke="#ef5959" stroke-width="1.249" stroke-opacity="1" stroke-miterlimit="4"/></g></g></g><g clip-path="url(#id15)"><path fill="#f25c5c" d="M 367.761719 76.207031 C 342.898438 76.207031 322.761719 96.34375 322.761719 121.207031 C 322.761719 146.070312 342.898438 166.207031 367.761719 166.207031 C 392.621094 166.207031 412.761719 146.070312 412.761719 121.207031 C 412.761719 96.34375 392.621094 76.207031 367.761719 76.207031 Z M 367.761719 157.207031 C 347.871094 157.207031 331.761719 141.097656 331.761719 121.207031 C 331.761719 101.316406 347.871094 85.207031 367.761719 85.207031 C 387.648438 85.207031 403.761719 101.316406 403.761719 121.207031 C 403.761719 141.097656 387.648438 157.207031 367.761719 157.207031 Z M 367.761719 157.207031 " fill-opacity="1" fill-rule="nonzero"/></g><g clip-path="url(#id16)"><path fill="#f25c5c" d="M 367.765625 77.972656 C 343.734375 77.972656 324.265625 97.441406 324.265625 121.472656 C 324.265625 145.507812 343.734375 164.972656 367.765625 164.972656 C 391.800781 164.972656 411.265625 145.507812 411.265625 121.472656 C 411.265625 97.441406 391.800781 77.972656 367.765625 77.972656 Z M 367.765625 156.273438 C 348.539062 156.273438 332.964844 140.703125 332.964844 121.472656 C 332.964844 102.246094 348.539062 86.675781 367.765625 86.675781 C 386.992188 86.675781 402.566406 102.246094 402.566406 121.472656 C 402.566406 140.703125 386.992188 156.273438 367.765625 156.273438 Z M 367.765625 156.273438 " fill-opacity="1" fill-rule="nonzero"/></g><path fill="#396ab3" d="M 369.023438 118.449219 C 367.476562 118.449219 366.222656 119.707031 366.222656 121.253906 C 366.222656 122.804688 367.476562 124.058594 369.023438 124.058594 C 370.570312 124.058594 371.828125 122.804688 371.828125 121.253906 C 371.828125 119.707031 370.570312 118.449219 369.023438 118.449219 Z M 364.160156 121.253906 C 364.160156 118.566406 366.335938 116.386719 369.023438 116.386719 C 371.710938 116.386719 373.890625 118.566406 373.890625 121.253906 C 373.890625 123.941406 371.710938 126.121094 369.023438 126.121094 C 366.335938 126.121094 364.160156 123.941406 364.160156 121.253906 Z M 364.160156 121.253906 " fill-opacity="1" fill-rule="evenodd"/><g clip-path="url(#id17)"><path fill="#396ab3" d="M 372.761719 139.855469 C 374.628906 139.855469 376.144531 138.339844 376.144531 136.46875 C 376.144531 134.601562 374.628906 133.085938 372.761719 133.085938 C 370.894531 133.085938 369.378906 134.601562 369.378906 136.46875 C 369.378906 138.339844 370.894531 139.855469 372.761719 139.855469 Z M 372.761719 139.855469 " fill-opacity="1" fill-rule="nonzero"/></g><g clip-path="url(#id18)"><path fill="#396ab3" d="M 382.941406 110.457031 C 384.953125 110.457031 386.582031 108.824219 386.582031 106.8125 C 386.582031 104.800781 384.953125 103.171875 382.941406 103.171875 C 380.929688 103.171875 379.300781 104.800781 379.300781 106.8125 C 379.300781 108.824219 380.929688 110.457031 382.941406 110.457031 Z M 382.941406 110.457031 " fill-opacity="1" fill-rule="nonzero"/></g><g clip-path="url(#id19)"><path fill="#396ab3" d="M 361.003906 108.265625 C 362.425781 108.265625 363.578125 107.109375 363.578125 105.6875 C 363.578125 104.261719 362.425781 103.105469 361.003906 103.105469 C 359.578125 103.105469 358.425781 104.261719 358.425781 105.6875 C 358.425781 107.109375 359.578125 108.265625 361.003906 108.265625 Z M 361.003906 108.265625 " fill-opacity="1" fill-rule="nonzero"/></g><g clip-path="url(#id20)"><path fill="#396ab3" d="M 352.722656 132.828125 C 354.128906 132.828125 355.269531 131.6875 355.269531 130.28125 C 355.269531 128.875 354.128906 127.734375 352.722656 127.734375 C 351.316406 127.734375 350.175781 128.875 350.175781 130.28125 C 350.175781 131.6875 351.316406 132.828125 352.722656 132.828125 Z M 352.722656 132.828125 " fill-opacity="1" fill-rule="nonzero"/></g><path fill="#396ab3" d="M 371.375 134.4375 L 369.25 126.121094 L 370.996094 125.675781 L 373.125 133.992188 Z M 371.375 134.4375 " fill-opacity="1" fill-rule="evenodd"/><path fill="#396ab3" d="M 382.972656 130.3125 L 371.375 123.285156 L 372.308594 121.742188 L 383.910156 128.769531 Z M 382.972656 130.3125 " fill-opacity="1" fill-rule="evenodd"/><path fill="#396ab3" d="M 366.414062 124.125 L 354.238281 130.3125 L 353.417969 128.703125 L 365.597656 122.515625 Z M 366.414062 124.125 " fill-opacity="1" fill-rule="evenodd"/><g clip-path="url(#id21)"><path fill="#396ab3" d="M 385.132812 132.699219 C 386.539062 132.699219 387.675781 131.558594 387.675781 130.152344 C 387.675781 128.746094 386.539062 127.605469 385.132812 127.605469 C 383.726562 127.605469 382.585938 128.746094 382.585938 130.152344 C 382.585938 131.558594 383.726562 132.699219 385.132812 132.699219 Z M 385.132812 132.699219 " fill-opacity="1" fill-rule="nonzero"/></g><path fill="#396ab3" d="M 371.375 117.417969 L 380.140625 108.265625 L 381.441406 109.511719 L 372.679688 118.667969 Z M 371.375 117.417969 " fill-opacity="1" fill-rule="evenodd"/><path fill="#396ab3" d="M 366.414062 118.644531 L 360.617188 107.492188 L 362.214844 106.65625 L 368.015625 117.8125 Z M 366.414062 118.644531 " fill-opacity="1" fill-rule="evenodd"/></svg>